<?xml version="1.0" encoding="UTF-8"?>
<!DOCTYPE svg PUBLIC "-//W3C//DTD SVG 1.1//EN" "http://www.w3.org/Graphics/SVG/1.1/DTD/svg11.dtd">
<!-- Creator: CorelDRAW -->
<svg xmlns="http://www.w3.org/2000/svg" xml:space="preserve" width="100px" height="46px" version="1.1" style="shape-rendering:geometricPrecision; text-rendering:geometricPrecision; image-rendering:optimizeQuality; fill-rule:evenodd; clip-rule:evenodd"
viewBox="0 0 345.2 158.84"
 xmlns:xlink="http://www.w3.org/1999/xlink"
 xmlns:xodm="http://www.corel.com/coreldraw/odm/2003">
 <defs>
  <style type="text/css">
   <![CDATA[
    .fil0 {fill:none}
    .fil1 {fill:#DD994D}
   ]]>
  </style>
 </defs>
 <g id="Layer_x0020_1">
  <metadata id="CorelCorpID_0Corel-Layer"/>
  <rect class="fil0" width="345.2" height="158.84"/>
  <g id="_105553181808128">
   <path class="fil1" d="M219.63 110.47l2.57 0.44c4.92,0.76 31.06,7.63 19.15,12.86 -11.93,5.24 -43.51,-5.58 -69.95,0.76 -5.27,1.27 -9.49,2.57 -14.32,4.79 -2.08,0.95 -12.44,5.38 -9.69,8.59 1.66,1.95 4.79,-0.96 8.46,-2.8 26.48,-13.25 52.13,-4.7 76.6,-4.86 7.16,-0.05 16.01,-2.06 17.59,-7.81 1.78,-6.44 -7.37,-10.46 -12.13,-12.33 -5.77,-2.27 -12.92,-3.96 -19.33,-5.33 -5.18,-1.1 -16.28,-3.13 -18.17,-6.52 -0.11,-2.83 3.24,-4.11 5.66,-4.99 5.57,-2.02 11.97,-2.8 18.04,-3.29 3.49,-0.28 7.33,-0.01 5.42,-4.14 -3.78,-1.22 -15.39,0.35 -19.65,1.25 -16.88,3.56 -21.29,13.72 -7.08,18.84 2.65,0.96 5.39,1.81 8.28,2.34 1.7,0.3 7.73,1.49 8.55,2.2z"/>
   <g>
    <path class="fil1" d="M218.35 72.11c-1.05,-0.78 -2.89,-2.84 -3.87,-4.11 -1.17,-1.5 -2.19,-2.56 -3.47,-4.21 -12.04,-15.66 -2.92,-26.76 7.35,-26.75 8.37,0 15.39,7.66 12.66,17.02 -1.62,5.56 -10.03,16.66 -12.67,18.05zm-3.12 -39.56c-12.44,3.06 -17.18,14.19 -13.32,24.62 2.2,5.93 8.13,13.19 12.38,17.68 1.61,1.7 3.56,4.64 6.32,1.88 4.19,-4.21 14.8,-15.75 15.45,-24.95 0.8,-11.26 -9.35,-22.05 -20.83,-19.23z"/>
    <path class="fil1" d="M216.75 45.43c-6.54,1.92 -4.47,12.5 3.06,10.83 6.73,-1.49 4.63,-13.08 -3.06,-10.83z"/>
   </g>
   <path class="fil1" d="M174.35 65.44c-1.32,12.01 -7.78,21.33 -14,31.32 -5.75,9.25 -12.01,18.14 -18.3,27.03 -5.49,7.77 -4.82,7.78 -7.3,4.19 -0.76,-1.08 -1.68,-2.17 -2.47,-3.26 -8.18,-11.19 -20.87,-29.64 -26.93,-41.08 -6.27,-11.83 -8.73,-23.27 -3.1,-36.05 10.28,-23.33 39.83,-30.41 59.04,-14.11 9.23,7.82 14.39,19.84 13.06,31.96zm-79.36 -1.01c0.67,12.61 8.21,24.65 14.86,35.07 6.43,10.06 13.33,19.81 20.34,29.47 3.36,4.61 6.11,10.29 9.53,5.14 0.84,-1.27 1.69,-2.35 2.59,-3.57 3.53,-4.81 7.01,-9.68 10.37,-14.61 6.74,-9.88 13.47,-20.07 19.26,-30.54 7.11,-12.86 9.3,-25.97 3.47,-39.88 -4.6,-10.98 -14.9,-20.21 -26.33,-23.53 -28.19,-8.2 -55.58,14.47 -54.09,42.45z"/>
   <path class="fil1" d="M122.98 103.41l0.71 0.59c0.02,-1.74 0.49,-14.01 0.22,-14.48 0.28,-1.77 0.4,-11.75 0.66,-14.98 0.38,-4.81 0.66,-9.6 1.12,-14.4 0.87,-0.75 2.22,-0.12 2.7,-1.42l2.06 -10.2c0.46,-2.22 0.98,-4.42 1.48,-6.63 0.56,-2.48 2.8,-3.08 5.05,-3.16 6.34,-0.23 5.32,4.2 6.77,9.53 0.76,2.78 1.43,8.16 1.99,10.17 0.35,1.27 1.51,1.18 2.63,1.52 0.51,4.28 1.17,17.02 1.31,21.66 0.12,3.71 0.23,7.41 0.33,11.12 0.1,3.52 -0.15,7.87 0.2,11.27 0.53,-0.34 2.44,-3.33 2.91,-4.08 0.77,-1.21 0.99,-1.03 0.98,-2.57 0,-1.2 0.01,-2.41 0.01,-3.61 0.01,-4.66 -0.23,-9.25 -0.32,-13.89 -0.08,-4.08 -0.87,-15.26 -1.39,-19.79 -0.11,-0.97 -0.07,-2.06 -0.7,-2.84 -1.01,-1.27 -1.53,-0.6 -2.43,-1.22l-2.97 -13.6c-0.7,-2.67 -0.74,-3.59 -2.79,-5.59 -1.61,-1.59 -4.22,-1.96 -6.39,-1.96 -9.07,0 -8.81,6.21 -10.77,14.34 -0.28,1.18 -1.13,6.34 -1.45,6.91 -0.99,0.36 -1.66,0.15 -2.45,1.02 -0.66,0.73 -0.63,1.81 -0.73,2.77 -1.2,12.07 -1.89,20.33 -1.9,32.7 0,1.42 -0.36,5.54 0.35,6.56 0.67,0.94 2.44,3.32 2.81,4.26z"/>
   <path class="fil1" d="M138.05 109.87c1.06,-0.97 1.22,-25.02 1.22,-27.97 0,-4.82 0.02,-9.63 -0.16,-14.45l-0.44 -10.28c-0.03,-0.7 0.16,-3.03 -0.94,-2.76 -0.74,0.19 -0.66,2.53 -0.71,3.21 -0.69,9.97 -0.57,39.72 0.3,49.5 0.07,0.73 -0.04,2.65 0.73,2.75z"/>
   <path class="fil1" d="M130.78 109.88c0.69,-0.07 0.56,-0.72 0.62,-1.43 0.44,-4.85 0.59,-9.1 0.79,-13.99l0.2 -12.56c-0.02,-1.05 0.41,-2.96 -1.06,-3.18 -1.82,-0.29 -1.47,1.55 -1.49,2.75 -0.01,1.39 -0.05,2.79 -0.06,4.18 -0.01,2.79 -0.02,5.59 0.05,8.38 0.05,2.41 0.14,14.51 0.95,15.85z"/>
  </g>
 </g>
</svg>
